<svg width="669" height="441" viewBox="0 0 669 441" fill="none" xmlns="http://www.w3.org/2000/svg">
<g clip-path="url(#clip0)">
<path d="M518.508 68.5867V327.067C518.509 328.247 518.277 329.415 517.824 330.505C517.372 331.595 516.708 332.584 515.872 333.416C515.035 334.248 514.042 334.906 512.95 335.353C511.857 335.799 510.688 336.025 509.508 336.017H118.308C115.938 336.004 113.669 335.056 111.994 333.381C110.318 331.705 109.371 329.436 109.358 327.067V68.5867C109.371 66.2171 110.318 63.9482 111.994 62.2726C113.669 60.597 115.938 59.6498 118.308 59.6367H509.558C511.927 59.6498 514.196 60.597 515.872 62.2726C517.547 63.9482 518.495 66.2171 518.508 68.5867Z" fill="#E3FCF7" stroke="#001E2B" stroke-miterlimit="10"/>
<path d="M518.749 90.3567H109.229" stroke="#001E2B" stroke-miterlimit="10"/>
<path d="M538.697 383.183H50.8614C43.3083 383.183 37.3137 377.068 37.3137 370.474V287.869C37.3137 279.357 43.4282 273.243 50.8614 273.243H538.697C546.25 273.243 552.245 279.357 552.245 286.79V369.395C552.245 377.068 546.13 383.183 538.697 383.183Z" fill="white" stroke="#001E2B" stroke-miterlimit="10"/>
<path d="M359.1 322.159H316.059V338.224H359.1V322.159Z" fill="#00D2FF"/>
<path d="M321.813 333.13V325.807H322.653V329C322.822 328.707 323.044 328.492 323.317 328.355C323.59 328.218 323.887 328.15 324.206 328.15C324.479 328.15 324.73 328.196 324.957 328.287C325.185 328.378 325.377 328.511 325.534 328.687C325.696 328.856 325.823 329.065 325.914 329.312C326.006 329.553 326.051 329.823 326.051 330.122V333.13H325.221V330.249C325.221 329.839 325.114 329.517 324.899 329.283C324.691 329.042 324.414 328.921 324.069 328.921C323.874 328.921 323.688 328.961 323.512 329.039C323.343 329.117 323.193 329.234 323.063 329.39C322.94 329.54 322.839 329.725 322.761 329.947C322.689 330.168 322.653 330.422 322.653 330.708V333.13H321.813ZM329.731 333.228C329.36 333.228 329.018 333.162 328.706 333.032C328.393 332.896 328.123 332.713 327.895 332.485C327.667 332.258 327.488 331.991 327.358 331.685C327.235 331.372 327.173 331.04 327.173 330.689C327.173 330.337 327.235 330.009 327.358 329.703C327.488 329.39 327.667 329.12 327.895 328.892C328.123 328.664 328.393 328.485 328.706 328.355C329.018 328.218 329.36 328.15 329.731 328.15C330.095 328.15 330.434 328.218 330.746 328.355C331.059 328.485 331.329 328.664 331.557 328.892C331.785 329.12 331.96 329.39 332.084 329.703C332.214 330.009 332.279 330.337 332.279 330.689C332.279 331.04 332.214 331.372 332.084 331.685C331.96 331.991 331.785 332.258 331.557 332.485C331.329 332.713 331.059 332.896 330.746 333.032C330.434 333.162 330.095 333.228 329.731 333.228ZM329.731 332.446C329.985 332.446 330.216 332.401 330.424 332.31C330.632 332.219 330.808 332.095 330.951 331.939C331.101 331.776 331.215 331.59 331.293 331.382C331.378 331.167 331.42 330.936 331.42 330.689C331.42 330.448 331.378 330.22 331.293 330.005C331.215 329.79 331.101 329.605 330.951 329.449C330.808 329.286 330.632 329.159 330.424 329.068C330.216 328.977 329.985 328.931 329.731 328.931C329.477 328.931 329.246 328.977 329.038 329.068C328.829 329.159 328.65 329.286 328.501 329.449C328.351 329.605 328.234 329.79 328.149 330.005C328.071 330.22 328.032 330.448 328.032 330.689C328.032 330.936 328.071 331.167 328.149 331.382C328.234 331.59 328.351 331.776 328.501 331.939C328.65 332.095 328.829 332.219 329.038 332.31C329.246 332.401 329.477 332.446 329.731 332.446ZM335.213 333.228C334.946 333.228 334.702 333.182 334.481 333.091C334.259 332.993 334.071 332.86 333.914 332.69C333.758 332.521 333.634 332.316 333.543 332.075C333.459 331.828 333.416 331.551 333.416 331.245V328.248H334.256V331.118C334.256 331.529 334.354 331.854 334.549 332.095C334.751 332.336 335.021 332.456 335.36 332.456C335.548 332.456 335.724 332.417 335.887 332.339C336.056 332.254 336.199 332.137 336.316 331.987C336.44 331.831 336.538 331.642 336.609 331.421C336.681 331.2 336.717 330.949 336.717 330.669V328.248H337.556V333.13H336.717V332.378C336.554 332.664 336.339 332.879 336.072 333.022C335.812 333.159 335.525 333.228 335.213 333.228ZM340.711 333.228C340.451 333.228 340.204 333.195 339.969 333.13C339.735 333.065 339.53 332.97 339.354 332.847C339.178 332.717 339.035 332.557 338.924 332.368C338.814 332.179 338.749 331.961 338.729 331.714H339.588C339.614 331.864 339.663 331.991 339.735 332.095C339.813 332.193 339.904 332.274 340.008 332.339C340.112 332.404 340.223 332.45 340.34 332.476C340.464 332.502 340.591 332.515 340.721 332.515C340.988 332.515 341.209 332.463 341.385 332.359C341.567 332.248 341.658 332.085 341.658 331.87C341.658 331.675 341.597 331.516 341.473 331.392C341.349 331.268 341.141 331.167 340.848 331.089L340.145 330.904C339.722 330.793 339.406 330.614 339.198 330.367C338.99 330.119 338.885 329.82 338.885 329.468C338.885 329.266 338.928 329.084 339.012 328.921C339.097 328.759 339.214 328.622 339.364 328.511C339.514 328.394 339.689 328.306 339.891 328.248C340.099 328.183 340.327 328.15 340.575 328.15C340.835 328.15 341.069 328.186 341.278 328.257C341.486 328.329 341.665 328.43 341.815 328.56C341.971 328.684 342.095 328.83 342.186 329C342.277 329.169 342.332 329.351 342.352 329.546H341.512C341.447 329.332 341.33 329.162 341.16 329.039C340.998 328.915 340.802 328.853 340.575 328.853C340.34 328.853 340.142 328.908 339.979 329.019C339.816 329.123 339.735 329.27 339.735 329.459C339.735 329.641 339.793 329.787 339.911 329.898C340.028 330.002 340.217 330.09 340.477 330.162L341.258 330.367C341.668 330.471 341.977 330.646 342.186 330.894C342.401 331.135 342.508 331.441 342.508 331.812C342.508 332.053 342.462 332.264 342.371 332.446C342.28 332.622 342.153 332.769 341.99 332.886C341.828 333.003 341.636 333.088 341.414 333.14C341.2 333.198 340.965 333.228 340.711 333.228ZM345.777 333.228C345.419 333.228 345.09 333.166 344.791 333.042C344.491 332.912 344.231 332.733 344.01 332.505C343.795 332.277 343.626 332.01 343.502 331.704C343.378 331.392 343.316 331.053 343.316 330.689C343.316 330.331 343.372 329.999 343.482 329.693C343.6 329.38 343.766 329.11 343.98 328.882C344.195 328.655 344.456 328.476 344.762 328.345C345.067 328.215 345.412 328.15 345.797 328.15C346.181 328.15 346.522 328.225 346.822 328.375C347.128 328.518 347.382 328.716 347.583 328.97C347.792 329.218 347.941 329.511 348.033 329.849C348.13 330.181 348.166 330.536 348.14 330.913H344.166C344.172 331.135 344.218 331.34 344.303 331.529C344.394 331.717 344.511 331.883 344.654 332.027C344.797 332.163 344.967 332.271 345.162 332.349C345.357 332.427 345.565 332.466 345.787 332.466C346.093 332.466 346.366 332.404 346.607 332.28C346.854 332.15 347.053 331.939 347.203 331.646H348.062C348.003 331.861 347.909 332.066 347.779 332.261C347.649 332.45 347.486 332.616 347.29 332.759C347.102 332.902 346.88 333.016 346.627 333.101C346.373 333.185 346.089 333.228 345.777 333.228ZM345.767 328.892C345.591 328.892 345.419 328.918 345.25 328.97C345.081 329.022 344.924 329.104 344.781 329.214C344.644 329.325 344.524 329.465 344.42 329.634C344.316 329.804 344.244 330.009 344.205 330.249H347.251C347.173 329.794 346.998 329.455 346.724 329.234C346.451 329.006 346.132 328.892 345.767 328.892Z" fill="#001E2B"/>
<path d="M81.4324 334.148H309.225" stroke="#001E2B" stroke-miterlimit="10" stroke-linecap="round" stroke-linejoin="round"/>
<path d="M364.614 334.148H494.695" stroke="#001E2B" stroke-miterlimit="10" stroke-linecap="round" stroke-linejoin="round"/>
<path d="M66.9264 351.412H399.743" stroke="#001E2B" stroke-miterlimit="10" stroke-linecap="round" stroke-linejoin="round"/>
<path d="M66.6863 334.508C67.1498 334.508 67.5255 334.132 67.5255 333.668C67.5255 333.205 67.1498 332.829 66.6863 332.829C66.2228 332.829 65.847 333.205 65.847 333.668C65.847 334.132 66.2228 334.508 66.6863 334.508Z" fill="#001E2B"/>
<path d="M70.4025 334.507C70.866 334.507 71.2417 334.132 71.2417 333.668C71.2417 333.205 70.866 332.829 70.4025 332.829C69.939 332.829 69.5632 333.205 69.5632 333.668C69.5632 334.132 69.939 334.507 70.4025 334.507Z" fill="#001E2B"/>
<path d="M74.1163 334.507C74.5798 334.507 74.9556 334.132 74.9556 333.668C74.9556 333.205 74.5798 332.829 74.1163 332.829C73.6528 332.829 73.2771 333.205 73.2771 333.668C73.2771 334.132 73.6528 334.507 74.1163 334.507Z" fill="#001E2B"/>
<path d="M406.937 352.491C407.401 352.491 407.776 352.115 407.776 351.652C407.776 351.188 407.401 350.812 406.937 350.812C406.474 350.812 406.098 351.188 406.098 351.652C406.098 352.115 406.474 352.491 406.937 352.491Z" fill="#001E2B"/>
<path d="M410.654 352.491C411.117 352.491 411.493 352.115 411.493 351.652C411.493 351.188 411.117 350.812 410.654 350.812C410.19 350.812 409.814 351.188 409.814 351.652C409.814 352.115 410.19 352.491 410.654 352.491Z" fill="#001E2B"/>
<path d="M414.369 352.491C414.833 352.491 415.209 352.115 415.209 351.652C415.209 351.188 414.833 350.812 414.369 350.812C413.906 350.812 413.53 351.188 413.53 351.652C413.53 352.115 413.906 352.491 414.369 352.491Z" fill="#001E2B"/>
<path d="M60.3279 158.246C78.7354 158.246 93.6576 143.324 93.6576 124.916C93.6576 106.509 78.7354 91.5867 60.3279 91.5867C41.9205 91.5867 26.9983 106.509 26.9983 124.916C26.9983 143.324 41.9205 158.246 60.3279 158.246Z" fill="#001E2B" stroke="#001E2B" stroke-miterlimit="10"/>
<path d="M53.3279 153.246C71.7354 153.246 86.6576 138.324 86.6576 119.916C86.6576 101.509 71.7354 86.5867 53.3279 86.5867C34.9205 86.5867 19.9983 101.509 19.9983 119.916C19.9983 138.324 34.9205 153.246 53.3279 153.246Z" fill="white" stroke="#001E2B" stroke-miterlimit="10"/>
<path d="M73.1083 93.061L39.2991 150.249C44.0947 152.887 47.092 153.006 53.0865 153.006C71.4298 153.006 86.4162 138.14 86.4162 119.677C86.2963 108.287 81.8603 99.0556 73.1083 93.061Z" fill="#B1FF05"/>
<path d="M37.5002 123.873L47.3313 137.061L66.6337 104.211" stroke="#001E2B" stroke-miterlimit="10"/>
<path d="M53.3279 153.246C71.7354 153.246 86.6576 138.324 86.6576 119.916C86.6576 101.509 71.7354 86.5867 53.3279 86.5867C34.9205 86.5867 19.9983 101.509 19.9983 119.916C19.9983 138.324 34.9205 153.246 53.3279 153.246Z" stroke="#001E2B" stroke-miterlimit="10"/>
<path d="M518.546 252.587H161.668C156.336 252.587 151.998 246.462 151.998 239.978V157.237C151.998 148.711 156.336 142.587 161.668 142.587H509.328C514.66 142.587 518.998 148.711 518.998 156.157L518.546 252.587Z" fill="#001E2B" stroke="#001E2B" stroke-miterlimit="10"/>
<path d="M635.332 234.638H147.616C140.063 234.638 134.069 228.524 134.069 222.05V139.445C134.069 130.933 140.183 124.818 147.616 124.818H635.452C643.005 124.818 649 130.933 649 138.366V220.971C649 228.524 642.885 234.638 635.332 234.638Z" fill="white" stroke="#001E2B" stroke-miterlimit="10"/>
<path d="M619.625 151.194L624.541 146.279L619.625 141.243" stroke="#001E2B" stroke-miterlimit="10" stroke-linecap="round" stroke-linejoin="round"/>
<path d="M180.942 182.845H316.898" stroke="#001E2B" stroke-miterlimit="10" stroke-linecap="round" stroke-linejoin="round"/>
<path d="M394.345 182.845H545.528" stroke="#001E2B" stroke-miterlimit="10" stroke-linecap="round" stroke-linejoin="round"/>
<path d="M166.315 199.39H421.443" stroke="#001E2B" stroke-miterlimit="10" stroke-linecap="round" stroke-linejoin="round"/>
<path d="M166.076 185.483C166.539 185.483 166.915 185.107 166.915 184.644C166.915 184.18 166.539 183.804 166.076 183.804C165.612 183.804 165.237 184.18 165.237 184.644C165.237 185.107 165.612 185.483 166.076 185.483Z" fill="#001E2B"/>
<path d="M169.791 185.483C170.254 185.483 170.63 185.107 170.63 184.644C170.63 184.18 170.254 183.804 169.791 183.804C169.327 183.804 168.951 184.18 168.951 184.644C168.951 185.107 169.327 185.483 169.791 185.483Z" fill="#001E2B"/>
<path d="M173.506 185.483C173.97 185.483 174.345 185.107 174.345 184.644C174.345 184.18 173.97 183.804 173.506 183.804C173.043 183.804 172.667 184.18 172.667 184.644C172.667 185.107 173.043 185.483 173.506 185.483Z" fill="#001E2B"/>
<path d="M428.755 203.347C429.219 203.347 429.594 202.971 429.594 202.507C429.594 202.044 429.219 201.668 428.755 201.668C428.292 201.668 427.916 202.044 427.916 202.507C427.916 202.971 428.292 203.347 428.755 203.347Z" fill="#001E2B"/>
<path d="M432.471 203.347C432.935 203.347 433.311 202.971 433.311 202.508C433.311 202.044 432.935 201.668 432.471 201.668C432.008 201.668 431.632 202.044 431.632 202.508C431.632 202.971 432.008 203.347 432.471 203.347Z" fill="#001E2B"/>
<path d="M436.189 203.347C436.652 203.347 437.028 202.971 437.028 202.508C437.028 202.044 436.652 201.668 436.189 201.668C435.725 201.668 435.35 202.044 435.35 202.508C435.35 202.971 435.725 203.347 436.189 203.347Z" fill="#001E2B"/>
<path d="M175.472 153.701C174.482 152.753 173.147 151.777 171.007 151.777C168.395 151.777 166.916 153.17 166.916 155.165C166.916 156.945 168.366 157.778 170.146 158.022L171.309 158.18C172.213 158.295 173.075 158.496 173.075 159.214C173.075 160.061 171.955 160.391 171.208 160.391C170.117 160.391 168.955 159.931 168.28 159.113L166.356 160.333C167.39 161.539 168.61 162.386 170.979 162.386C173.879 162.386 175.587 160.994 175.587 158.855C175.587 157.118 174.496 156.314 171.855 155.94L170.735 155.782C169.873 155.653 169.443 155.395 169.443 154.849C169.443 154.376 169.916 153.773 170.95 153.773C172.041 153.773 172.874 154.275 173.606 155.036L175.472 153.701ZM181.968 159.53C181.81 160.003 181.38 160.649 180.518 160.649C179.298 160.649 178.853 159.343 178.853 158.395C178.853 157.491 179.269 156.141 180.446 156.141C181.308 156.141 181.71 156.773 181.911 157.189L183.547 156.256C182.499 154.591 181.021 154.447 180.346 154.447C178.652 154.447 176.585 155.467 176.585 158.467C176.585 161.281 178.551 162.401 180.303 162.401C181.451 162.401 182.787 161.87 183.634 160.391L181.968 159.53ZM192.363 158.41C192.363 156.615 191.401 154.433 188.257 154.433C185.458 154.433 184.309 156.472 184.309 158.367C184.309 161.324 186.377 162.386 188.329 162.386C190.841 162.386 192.363 160.836 192.363 158.41ZM190.124 158.481C190.124 159.601 189.578 160.621 188.358 160.621C187.066 160.621 186.534 159.63 186.534 158.381C186.534 156.816 187.41 156.184 188.243 156.184C189.449 156.184 190.124 156.888 190.124 158.481ZM193.784 154.663V162.157H195.981V157.936C195.981 157.132 196.196 156.831 197.359 156.644L198.091 156.529V154.577C197.819 154.591 197.402 154.634 196.799 154.878C196.311 155.079 196.11 155.28 195.924 155.438V154.663H193.784ZM206.275 158.869V158.769C206.275 156.687 205.327 154.433 202.513 154.433C199.584 154.433 198.666 156.673 198.666 158.553C198.666 160.98 200.173 162.43 202.456 162.43C204.006 162.43 205.341 161.683 206.188 160.262L204.523 159.4C204.293 160.018 203.676 160.735 202.628 160.735C201.609 160.735 200.92 159.96 200.92 158.955V158.869H206.275ZM200.92 157.491C201.02 156.888 201.451 156.012 202.499 156.012C203.403 156.012 203.963 156.658 203.992 157.491H200.92ZM210.108 157.075V154.663H207.811V157.075H210.108ZM210.108 162.157V159.716H207.811V162.157H210.108ZM216.223 155.366C217.616 155.337 217.745 155.28 218.276 155.05V162.157H220.588V152.423H218.836C218.65 152.811 218.463 153.184 217.831 153.514C217.3 153.787 216.812 153.83 216.223 153.873V155.366ZM225.189 156.041C225.161 155.739 225.132 155.366 225.132 155.122C225.132 154.103 225.807 153.931 226.194 153.931C227.185 153.931 227.185 154.878 227.185 155.266C227.185 156.802 226.352 157.62 225.204 158.625C224.199 159.486 223.696 159.874 222.95 160.463V162.157H229.626V160.319C229.224 160.319 225.835 160.377 225.835 160.377C228.678 158.209 229.597 156.917 229.597 155.223C229.597 153.342 228.29 152.251 226.295 152.251C224.357 152.251 222.878 153.27 222.878 155.567V155.912L225.189 156.041Z" fill="#001E2B"/>
<path d="M385.998 167.587H346.998V188.587H385.998V167.587Z" fill="#05ED64"/>
<path d="M327.427 180.833C327.213 180.833 327.014 180.804 326.832 180.745C326.65 180.68 326.49 180.589 326.353 180.472C326.223 180.348 326.119 180.192 326.041 180.003C325.969 179.814 325.934 179.593 325.934 179.339V176.673H324.899V175.902H325.934V174.545H326.773V175.902H328.179V176.673H326.773V179.232C326.773 179.544 326.842 179.762 326.978 179.886C327.115 180.003 327.317 180.062 327.584 180.062C327.688 180.062 327.792 180.055 327.896 180.042C328.007 180.023 328.101 179.997 328.179 179.964V180.716C328.075 180.748 327.961 180.774 327.838 180.794C327.714 180.82 327.577 180.833 327.427 180.833ZM331.353 180.882C330.982 180.882 330.64 180.817 330.328 180.687C330.015 180.55 329.745 180.368 329.517 180.14C329.289 179.912 329.11 179.645 328.98 179.339C328.857 179.027 328.795 178.695 328.795 178.343C328.795 177.992 328.857 177.663 328.98 177.357C329.11 177.044 329.289 176.774 329.517 176.546C329.745 176.319 330.015 176.14 330.328 176.009C330.64 175.873 330.982 175.804 331.353 175.804C331.718 175.804 332.056 175.873 332.368 176.009C332.681 176.14 332.951 176.319 333.179 176.546C333.407 176.774 333.582 177.044 333.706 177.357C333.836 177.663 333.901 177.992 333.901 178.343C333.901 178.695 333.836 179.027 333.706 179.339C333.582 179.645 333.407 179.912 333.179 180.14C332.951 180.368 332.681 180.55 332.368 180.687C332.056 180.817 331.718 180.882 331.353 180.882ZM331.353 180.101C331.607 180.101 331.838 180.055 332.046 179.964C332.255 179.873 332.43 179.749 332.574 179.593C332.723 179.43 332.837 179.245 332.915 179.036C333 178.822 333.042 178.59 333.042 178.343C333.042 178.102 333 177.874 332.915 177.66C332.837 177.445 332.723 177.259 332.574 177.103C332.43 176.94 332.255 176.813 332.046 176.722C331.838 176.631 331.607 176.586 331.353 176.586C331.099 176.586 330.868 176.631 330.66 176.722C330.451 176.813 330.272 176.94 330.123 177.103C329.973 177.259 329.856 177.445 329.771 177.66C329.693 177.874 329.654 178.102 329.654 178.343C329.654 178.59 329.693 178.822 329.771 179.036C329.856 179.245 329.973 179.43 330.123 179.593C330.272 179.749 330.451 179.873 330.66 179.964C330.868 180.055 331.099 180.101 331.353 180.101ZM338.017 177.279L336.816 180.784H336.074L334.414 175.902H335.293L336.474 179.466L337.695 175.902H338.339L339.56 179.466L340.741 175.902H341.63L339.97 180.784H339.228L338.017 177.279ZM342.535 175.902H343.375V176.654C343.544 176.361 343.765 176.146 344.039 176.009C344.312 175.873 344.608 175.804 344.927 175.804C345.201 175.804 345.451 175.85 345.679 175.941C345.907 176.032 346.099 176.166 346.255 176.341C346.418 176.511 346.545 176.719 346.636 176.966C346.727 177.207 346.773 177.477 346.773 177.777V180.784H345.943V177.904C345.943 177.494 345.835 177.171 345.62 176.937C345.412 176.696 345.135 176.576 344.79 176.576C344.595 176.576 344.41 176.615 344.234 176.693C344.065 176.771 343.915 176.888 343.785 177.044C343.661 177.194 343.56 177.38 343.482 177.601C343.41 177.822 343.375 178.076 343.375 178.363V180.784H342.535V175.902ZM348.285 180.784V173.461H349.125V176.654C349.294 176.361 349.515 176.146 349.789 176.009C350.062 175.873 350.358 175.804 350.677 175.804C350.95 175.804 351.201 175.85 351.429 175.941C351.657 176.032 351.849 176.166 352.005 176.341C352.168 176.511 352.295 176.719 352.386 176.966C352.477 177.207 352.523 177.477 352.523 177.777V180.784H351.693V177.904C351.693 177.494 351.585 177.171 351.37 176.937C351.162 176.696 350.885 176.576 350.54 176.576C350.345 176.576 350.16 176.615 349.984 176.693C349.815 176.771 349.665 176.888 349.535 177.044C349.411 177.194 349.31 177.38 349.232 177.601C349.16 177.822 349.125 178.076 349.125 178.363V180.784H348.285ZM356.202 180.882C355.831 180.882 355.49 180.817 355.177 180.687C354.865 180.55 354.594 180.368 354.367 180.14C354.139 179.912 353.96 179.645 353.83 179.339C353.706 179.027 353.644 178.695 353.644 178.343C353.644 177.992 353.706 177.663 353.83 177.357C353.96 177.044 354.139 176.774 354.367 176.546C354.594 176.319 354.865 176.14 355.177 176.009C355.49 175.873 355.831 175.804 356.202 175.804C356.567 175.804 356.905 175.873 357.218 176.009C357.53 176.14 357.8 176.319 358.028 176.546C358.256 176.774 358.432 177.044 358.556 177.357C358.686 177.663 358.751 177.992 358.751 178.343C358.751 178.695 358.686 179.027 358.556 179.339C358.432 179.645 358.256 179.912 358.028 180.14C357.8 180.368 357.53 180.55 357.218 180.687C356.905 180.817 356.567 180.882 356.202 180.882ZM356.202 180.101C356.456 180.101 356.687 180.055 356.896 179.964C357.104 179.873 357.28 179.749 357.423 179.593C357.573 179.43 357.687 179.245 357.765 179.036C357.849 178.822 357.892 178.59 357.892 178.343C357.892 178.102 357.849 177.874 357.765 177.66C357.687 177.445 357.573 177.259 357.423 177.103C357.28 176.94 357.104 176.813 356.896 176.722C356.687 176.631 356.456 176.586 356.202 176.586C355.948 176.586 355.717 176.631 355.509 176.722C355.301 176.813 355.122 176.94 354.972 177.103C354.822 177.259 354.705 177.445 354.621 177.66C354.542 177.874 354.503 178.102 354.503 178.343C354.503 178.59 354.542 178.822 354.621 179.036C354.705 179.245 354.822 179.43 354.972 179.593C355.122 179.749 355.301 179.873 355.509 179.964C355.717 180.055 355.948 180.101 356.202 180.101ZM361.684 180.882C361.418 180.882 361.173 180.836 360.952 180.745C360.731 180.647 360.542 180.514 360.386 180.345C360.23 180.176 360.106 179.97 360.015 179.73C359.93 179.482 359.888 179.206 359.888 178.9V175.902H360.728V178.773C360.728 179.183 360.825 179.508 361.021 179.749C361.222 179.99 361.492 180.11 361.831 180.11C362.02 180.11 362.195 180.071 362.358 179.993C362.527 179.909 362.671 179.791 362.788 179.642C362.912 179.486 363.009 179.297 363.081 179.075C363.152 178.854 363.188 178.603 363.188 178.324V175.902H364.028V180.784H363.188V180.032C363.025 180.319 362.811 180.534 362.544 180.677C362.283 180.813 361.997 180.882 361.684 180.882ZM367.183 180.882C366.922 180.882 366.675 180.849 366.441 180.784C366.206 180.719 366.001 180.625 365.826 180.501C365.65 180.371 365.507 180.211 365.396 180.023C365.285 179.834 365.22 179.616 365.201 179.368H366.06C366.086 179.518 366.135 179.645 366.206 179.749C366.284 179.847 366.376 179.928 366.48 179.993C366.584 180.058 366.695 180.104 366.812 180.13C366.935 180.156 367.062 180.169 367.193 180.169C367.459 180.169 367.681 180.117 367.857 180.013C368.039 179.902 368.13 179.739 368.13 179.525C368.13 179.329 368.068 179.17 367.944 179.046C367.821 178.922 367.612 178.822 367.319 178.743L366.616 178.558C366.193 178.447 365.878 178.268 365.669 178.021C365.461 177.774 365.357 177.474 365.357 177.123C365.357 176.921 365.399 176.739 365.484 176.576C365.568 176.413 365.686 176.276 365.835 176.166C365.985 176.048 366.161 175.961 366.363 175.902C366.571 175.837 366.799 175.804 367.046 175.804C367.306 175.804 367.541 175.84 367.749 175.912C367.957 175.983 368.136 176.084 368.286 176.214C368.442 176.338 368.566 176.485 368.657 176.654C368.748 176.823 368.804 177.005 368.823 177.201H367.983C367.918 176.986 367.801 176.817 367.632 176.693C367.469 176.569 367.274 176.507 367.046 176.507C366.812 176.507 366.613 176.563 366.45 176.673C366.288 176.778 366.206 176.924 366.206 177.113C366.206 177.295 366.265 177.442 366.382 177.552C366.499 177.656 366.688 177.744 366.948 177.816L367.73 178.021C368.14 178.125 368.449 178.301 368.657 178.548C368.872 178.789 368.979 179.095 368.979 179.466C368.979 179.707 368.934 179.918 368.843 180.101C368.752 180.276 368.625 180.423 368.462 180.54C368.299 180.657 368.107 180.742 367.886 180.794C367.671 180.853 367.437 180.882 367.183 180.882ZM372.248 180.882C371.89 180.882 371.562 180.82 371.262 180.696C370.963 180.566 370.702 180.387 370.481 180.159C370.266 179.931 370.097 179.665 369.973 179.359C369.85 179.046 369.788 178.708 369.788 178.343C369.788 177.985 369.843 177.653 369.954 177.347C370.071 177.035 370.237 176.765 370.452 176.537C370.667 176.309 370.927 176.13 371.233 176C371.539 175.869 371.884 175.804 372.268 175.804C372.652 175.804 372.994 175.879 373.293 176.029C373.599 176.172 373.853 176.371 374.055 176.625C374.263 176.872 374.413 177.165 374.504 177.503C374.602 177.835 374.637 178.19 374.611 178.568H370.637C370.644 178.789 370.689 178.994 370.774 179.183C370.865 179.372 370.982 179.538 371.126 179.681C371.269 179.818 371.438 179.925 371.633 180.003C371.829 180.081 372.037 180.12 372.258 180.12C372.564 180.12 372.838 180.058 373.078 179.935C373.326 179.804 373.524 179.593 373.674 179.3H374.533C374.475 179.515 374.38 179.72 374.25 179.915C374.12 180.104 373.957 180.27 373.762 180.413C373.573 180.556 373.352 180.67 373.098 180.755C372.844 180.84 372.561 180.882 372.248 180.882ZM372.239 176.546C372.063 176.546 371.89 176.573 371.721 176.625C371.552 176.677 371.396 176.758 371.252 176.869C371.116 176.979 370.995 177.119 370.891 177.289C370.787 177.458 370.715 177.663 370.676 177.904H373.723C373.645 177.448 373.469 177.11 373.196 176.888C372.922 176.66 372.603 176.546 372.239 176.546Z" fill="#001E2B"/>
<path d="M74.3122 301.24C73.3216 300.293 71.9864 299.317 69.8473 299.317C67.2345 299.317 65.7558 300.709 65.7558 302.705C65.7558 304.485 67.2058 305.318 68.9859 305.562L70.1488 305.72C71.0533 305.834 71.9147 306.035 71.9147 306.753C71.9147 307.6 70.7949 307.93 70.0483 307.93C68.9572 307.93 67.7944 307.471 67.1196 306.653L65.1959 307.873C66.2295 309.079 67.4498 309.926 69.8186 309.926C72.7186 309.926 74.427 308.533 74.427 306.394C74.427 304.657 73.3359 303.853 70.6944 303.48L69.5746 303.322C68.7132 303.193 68.2825 302.934 68.2825 302.389C68.2825 301.915 68.7562 301.312 69.7899 301.312C70.881 301.312 71.7137 301.815 72.4458 302.576L74.3122 301.24ZM80.8081 307.069C80.6502 307.543 80.2195 308.189 79.3581 308.189C78.1378 308.189 77.6928 306.882 77.6928 305.935C77.6928 305.03 78.1091 303.681 79.2863 303.681C80.1477 303.681 80.5497 304.313 80.7507 304.729L82.3873 303.796C81.3393 302.13 79.8606 301.987 79.1858 301.987C77.4918 301.987 75.4245 303.006 75.4245 306.007C75.4245 308.821 77.3913 309.94 79.1428 309.94C80.2913 309.94 81.6264 309.409 82.4734 307.93L80.8081 307.069ZM91.203 305.949C91.203 304.155 90.2412 301.973 87.0971 301.973C84.2976 301.973 83.1491 304.011 83.1491 305.906C83.1491 308.864 85.2164 309.926 87.1689 309.926C89.6813 309.926 91.203 308.376 91.203 305.949ZM88.9634 306.021C88.9634 307.141 88.4179 308.16 87.1976 308.16C85.9055 308.16 85.3743 307.17 85.3743 305.921C85.3743 304.356 86.2501 303.724 87.0828 303.724C88.2887 303.724 88.9634 304.427 88.9634 306.021ZM92.6243 302.202V309.696H94.8208V305.476C94.8208 304.672 95.0362 304.37 96.1991 304.183L96.9312 304.069V302.116C96.6585 302.13 96.2421 302.174 95.6392 302.418C95.151 302.619 94.9501 302.82 94.7634 302.977V302.202H92.6243ZM105.114 306.409V306.308C105.114 304.227 104.167 301.973 101.353 301.973C98.4243 301.973 97.5055 304.212 97.5055 306.093C97.5055 308.519 99.0129 309.969 101.296 309.969C102.846 309.969 104.181 309.223 105.028 307.801L103.363 306.94C103.133 307.557 102.516 308.275 101.468 308.275C100.449 308.275 99.7595 307.5 99.7595 306.495V306.409H105.114ZM99.7595 305.03C99.8599 304.427 100.291 303.552 101.339 303.552C102.243 303.552 102.803 304.198 102.832 305.03H99.7595ZM108.948 304.614V302.202H106.651V304.614H108.948ZM108.948 309.696V307.256H106.651V309.696H108.948ZM114.589 305.088L116.585 305.418C116.686 305.131 116.887 304.657 117.604 304.657C118.265 304.657 118.839 305.145 118.839 306.337C118.839 306.868 118.767 308.146 117.633 308.146C116.786 308.146 116.485 307.514 116.485 306.552L114.202 306.638C114.202 308.304 115.149 309.883 117.533 309.883C120.131 309.883 121.193 308.017 121.193 306.323C121.193 304.557 120.145 303.107 118.265 303.107C117.389 303.107 116.944 303.451 116.729 303.609L116.958 301.829H120.634L120.777 299.991H115.178L114.589 305.088ZM124.776 309.696V307.299H122.507V309.696H124.776ZM128.35 302.934C128.35 302.518 128.35 301.527 129.341 301.527C129.815 301.527 130.389 301.843 130.389 302.633C130.389 302.733 130.389 303.781 129.169 303.781C129.054 303.781 128.839 303.767 128.839 303.767V305.418C128.839 305.418 129.04 305.404 129.154 305.404C129.757 305.404 130.59 305.547 130.59 306.653C130.59 307.557 130.073 308.088 129.312 308.088C128.652 308.088 128.121 307.557 128.121 306.653C128.121 306.509 128.135 306.236 128.135 306.236L125.895 306.423V306.638C125.895 308.576 127.058 309.869 129.212 309.869C132.298 309.869 132.901 307.715 132.901 306.796C132.901 305.676 132.27 304.786 131.049 304.571C131.954 304.255 132.657 303.624 132.657 302.403C132.657 301.47 132.112 299.79 129.485 299.79C127.92 299.79 126.312 300.393 126.082 302.733L128.35 302.934Z" fill="#001E2B"/>
<path d="M585.565 288.587V357.164" stroke="#001E2B" stroke-miterlimit="10"/>
<path d="M585.565 369.033V382.461" stroke="#001E2B" stroke-miterlimit="10"/>
<path d="M440.628 27.5867H378.045V72.1861H440.628V27.5867Z" fill="#001E2B" stroke="#001E2B" stroke-miterlimit="10"/>
<path d="M394.469 27.5867H32.9983V72.1861H394.469V27.5867Z" fill="white" stroke="#001E2B" stroke-miterlimit="10"/>
<path d="M48.3493 47.6267H49.3804V48.7896C49.4363 48.5978 49.5243 48.426 49.6442 48.2741C49.764 48.1222 49.8999 47.9944 50.0518 47.8905C50.2037 47.7865 50.3635 47.7066 50.5314 47.6507C50.7072 47.5947 50.883 47.5667 51.0589 47.5667C51.2187 47.5667 51.3746 47.5827 51.5265 47.6147V48.6817C51.4306 48.6418 51.3386 48.6178 51.2507 48.6098C51.1628 48.5938 51.0669 48.5858 50.963 48.5858C50.7711 48.5858 50.5793 48.6298 50.3875 48.7177C50.2037 48.7976 50.0358 48.9215 49.8839 49.0894C49.7401 49.2572 49.6202 49.473 49.5243 49.7368C49.4283 49.9926 49.3804 50.2963 49.3804 50.648V53.6213H48.3493V47.6267ZM55.0829 53.7412C54.6433 53.7412 54.2396 53.6653 53.872 53.5134C53.5043 53.3536 53.1846 53.1338 52.9128 52.854C52.6491 52.5743 52.4412 52.2466 52.2894 51.8709C52.1375 51.4872 52.0616 51.0716 52.0616 50.624C52.0616 50.1844 52.1295 49.7768 52.2654 49.4011C52.4093 49.0174 52.6131 48.6857 52.8769 48.406C53.1406 48.1262 53.4603 47.9064 53.836 47.7466C54.2117 47.5867 54.6353 47.5068 55.1069 47.5068C55.5784 47.5068 55.9981 47.5987 56.3657 47.7825C56.7414 47.9584 57.0531 48.2022 57.3009 48.5139C57.5567 48.8176 57.7405 49.1773 57.8524 49.5929C57.9723 50.0006 58.0163 50.4362 57.9843 50.8998H53.1047C53.1126 51.1715 53.1686 51.4233 53.2725 51.6551C53.3844 51.8869 53.5283 52.0907 53.7041 52.2665C53.88 52.4344 54.0878 52.5663 54.3276 52.6622C54.5674 52.7581 54.8231 52.8061 55.0949 52.8061C55.4705 52.8061 55.8062 52.7301 56.102 52.5783C56.4057 52.4184 56.6495 52.1586 56.8333 51.799H57.8884C57.8165 52.0627 57.7006 52.3145 57.5407 52.5543C57.3808 52.7861 57.181 52.9899 56.9412 53.1657C56.7094 53.3416 56.4377 53.4815 56.126 53.5854C55.8142 53.6893 55.4665 53.7412 55.0829 53.7412ZM55.0709 48.418C54.8551 48.418 54.6433 48.45 54.4355 48.5139C54.2277 48.5778 54.0358 48.6777 53.86 48.8136C53.6921 48.9495 53.5443 49.1214 53.4164 49.3292C53.2885 49.537 53.2006 49.7888 53.1526 50.0845H56.8933C56.7974 49.525 56.5816 49.1094 56.2459 48.8376C55.9102 48.5579 55.5185 48.418 55.0709 48.418ZM59.4722 47.6267H60.5033V48.5499C60.7111 48.1902 60.9828 47.9264 61.3185 47.7586C61.6542 47.5907 62.0179 47.5068 62.4096 47.5068C62.7453 47.5068 63.053 47.5627 63.3327 47.6746C63.6125 47.7865 63.8483 47.9504 64.0401 48.1662C64.2399 48.374 64.3958 48.6298 64.5077 48.9335C64.6196 49.2293 64.6755 49.561 64.6755 49.9286V53.6213H63.6565V50.0845C63.6565 49.5809 63.5246 49.1853 63.2608 48.8976C63.005 48.6018 62.6653 48.4539 62.2417 48.4539C62.0019 48.4539 61.7741 48.5019 61.5583 48.5978C61.3505 48.6937 61.1667 48.8376 61.0068 49.0294C60.855 49.2133 60.7311 49.4411 60.6352 49.7128C60.5472 49.9846 60.5033 50.2963 60.5033 50.648V53.6213H59.4722V47.6267ZM68.788 53.6813C68.5242 53.6813 68.2804 53.6453 68.0566 53.5734C67.8328 53.4935 67.637 53.3816 67.4691 53.2377C67.3093 53.0858 67.1814 52.894 67.0855 52.6622C66.9976 52.4304 66.9536 52.1586 66.9536 51.8469V48.5738H65.6827V47.6267H66.9536V45.9602H67.9847V47.6267H69.7111V48.5738H67.9847V51.715C67.9847 52.0987 68.0686 52.3665 68.2365 52.5183C68.4043 52.6622 68.6521 52.7341 68.9798 52.7341C69.1077 52.7341 69.2356 52.7261 69.3635 52.7102C69.4993 52.6862 69.6152 52.6542 69.7111 52.6142V53.5374C69.5833 53.5774 69.4434 53.6093 69.2915 53.6333C69.1397 53.6653 68.9718 53.6813 68.788 53.6813ZM73.4161 53.7412C72.9925 53.7412 72.6008 53.6613 72.2412 53.5014C71.8895 53.3336 71.5818 53.1098 71.318 52.83C71.0542 52.5423 70.8464 52.2106 70.6946 51.8349C70.5507 51.4593 70.4787 51.0556 70.4787 50.624C70.4787 50.1924 70.5507 49.7888 70.6946 49.4131C70.8464 49.0374 71.0542 48.7097 71.318 48.43C71.5818 48.1422 71.8895 47.9184 72.2412 47.7586C72.6008 47.5907 72.9925 47.5068 73.4161 47.5068C73.8717 47.5068 74.2873 47.6107 74.663 47.8185C75.0387 48.0183 75.3264 48.2621 75.5262 48.5499V47.6267H76.5573V53.6213H75.5262V52.6982C75.3264 52.9859 75.0387 53.2337 74.663 53.4415C74.2873 53.6413 73.8717 53.7412 73.4161 53.7412ZM73.572 52.7941C73.8757 52.7941 74.1515 52.7381 74.3992 52.6262C74.647 52.5143 74.8588 52.3625 75.0347 52.1706C75.2185 51.9708 75.3584 51.739 75.4543 51.4753C75.5582 51.2115 75.6102 50.9277 75.6102 50.624C75.6102 50.3203 75.5582 50.0365 75.4543 49.7728C75.3584 49.509 75.2185 49.2812 75.0347 49.0894C74.8588 48.8896 74.647 48.7337 74.3992 48.6218C74.1515 48.5099 73.8757 48.4539 73.572 48.4539C73.2683 48.4539 72.9885 48.5099 72.7327 48.6218C72.485 48.7337 72.2691 48.8896 72.0853 49.0894C71.9095 49.2812 71.7696 49.509 71.6657 49.7728C71.5698 50.0365 71.5218 50.3203 71.5218 50.624C71.5218 50.9277 71.5698 51.2115 71.6657 51.4753C71.7696 51.739 71.9095 51.9708 72.0853 52.1706C72.2691 52.3625 72.485 52.5143 72.7327 52.6262C72.9885 52.7381 73.2683 52.7941 73.572 52.7941ZM78.4982 44.6294H79.5293V53.6213H78.4982V44.6294ZM81.1601 53.6213H86.2436V54.4966H81.1601V53.6213ZM89.76 53.7412C89.4403 53.7412 89.1365 53.7013 88.8488 53.6213C88.561 53.5414 88.3093 53.4255 88.0935 53.2736C87.8777 53.1138 87.7018 52.918 87.5659 52.6862C87.4301 52.4544 87.3501 52.1866 87.3261 51.8829H88.3812C88.4132 52.0667 88.4731 52.2226 88.561 52.3505C88.657 52.4704 88.7689 52.5703 88.8967 52.6502C89.0246 52.7301 89.1605 52.7861 89.3044 52.8181C89.4562 52.85 89.6121 52.866 89.772 52.866C90.0997 52.866 90.3714 52.8021 90.5872 52.6742C90.811 52.5383 90.9229 52.3385 90.9229 52.0747C90.9229 51.8349 90.847 51.6391 90.6951 51.4872C90.5433 51.3354 90.2875 51.2115 89.9278 51.1156L89.0646 50.8878C88.5451 50.7519 88.1574 50.5321 87.9016 50.2284C87.6459 49.9246 87.518 49.557 87.518 49.1254C87.518 48.8776 87.5699 48.6538 87.6738 48.4539C87.7777 48.2541 87.9216 48.0863 88.1054 47.9504C88.2893 47.8065 88.5051 47.6986 88.7529 47.6267C89.0086 47.5468 89.2884 47.5068 89.5921 47.5068C89.9118 47.5068 90.1996 47.5508 90.4554 47.6387C90.7111 47.7266 90.9309 47.8505 91.1148 48.0103C91.3066 48.1622 91.4585 48.342 91.5704 48.5499C91.6823 48.7577 91.7502 48.9815 91.7742 49.2213H90.7431C90.6632 48.9575 90.5193 48.7497 90.3115 48.5978C90.1117 48.446 89.8719 48.37 89.5921 48.37C89.3044 48.37 89.0606 48.438 88.8608 48.5738C88.661 48.7017 88.561 48.8816 88.561 49.1134C88.561 49.3372 88.633 49.517 88.7769 49.6529C88.9207 49.7808 89.1525 49.8887 89.4722 49.9766L90.4314 50.2284C90.9349 50.3563 91.3146 50.5721 91.5704 50.8758C91.8341 51.1715 91.966 51.5472 91.966 52.0028C91.966 52.2985 91.9101 52.5583 91.7982 52.7821C91.6863 52.9979 91.5304 53.1777 91.3306 53.3216C91.1307 53.4655 90.895 53.5694 90.6232 53.6333C90.3594 53.7053 90.0717 53.7412 89.76 53.7412ZM95.98 53.7412C95.5404 53.7412 95.1367 53.6653 94.7691 53.5134C94.4014 53.3536 94.0817 53.1338 93.8099 52.854C93.5462 52.5743 93.3383 52.2466 93.1865 51.8709C93.0346 51.4872 92.9587 51.0716 92.9587 50.624C92.9587 50.1844 93.0266 49.7768 93.1625 49.4011C93.3064 49.0174 93.5102 48.6857 93.774 48.406C94.0377 48.1262 94.3574 47.9064 94.7331 47.7466C95.1088 47.5867 95.5324 47.5068 96.004 47.5068C96.4755 47.5068 96.8952 47.5987 97.2628 47.7825C97.6385 47.9584 97.9502 48.2022 98.198 48.5139C98.4538 48.8176 98.6376 49.1773 98.7495 49.5929C98.8694 50.0006 98.9134 50.4362 98.8814 50.8998H94.0018C94.0097 51.1715 94.0657 51.4233 94.1696 51.6551C94.2815 51.8869 94.4254 52.0907 94.6012 52.2665C94.7771 52.4344 94.9849 52.5663 95.2247 52.6622C95.4644 52.7581 95.7202 52.8061 95.992 52.8061C96.3676 52.8061 96.7033 52.7301 96.9991 52.5783C97.3028 52.4184 97.5466 52.1586 97.7304 51.799H98.7855C98.7135 52.0627 98.5976 52.3145 98.4378 52.5543C98.2779 52.7861 98.0781 52.9899 97.8383 53.1657C97.6065 53.3416 97.3348 53.4815 97.0231 53.5854C96.7113 53.6893 96.3636 53.7412 95.98 53.7412ZM95.968 48.418C95.7522 48.418 95.5404 48.45 95.3326 48.5139C95.1247 48.5778 94.9329 48.6777 94.7571 48.8136C94.5892 48.9495 94.4414 49.1214 94.3135 49.3292C94.1856 49.537 94.0977 49.7888 94.0497 50.0845H97.7904C97.6945 49.525 97.4786 49.1094 97.1429 48.8376C96.8072 48.5579 96.4156 48.418 95.968 48.418ZM102.839 53.7412C102.415 53.7412 102.024 53.6613 101.664 53.5014C101.312 53.3336 101.005 53.1098 100.741 52.83C100.477 52.5423 100.269 52.2106 100.118 51.8349C99.9736 51.4593 99.9017 51.0556 99.9017 50.624C99.9017 50.1924 99.9736 49.7888 100.118 49.4131C100.269 49.0374 100.477 48.7097 100.741 48.43C101.005 48.1422 101.312 47.9184 101.664 47.7586C102.024 47.5907 102.415 47.5068 102.839 47.5068C103.295 47.5068 103.71 47.6107 104.086 47.8185C104.462 48.0183 104.749 48.2621 104.949 48.5499V47.6267H105.98V53.6213H104.949V52.6982C104.749 52.9859 104.462 53.2337 104.086 53.4415C103.71 53.6413 103.295 53.7412 102.839 53.7412ZM102.995 52.7941C103.299 52.7941 103.574 52.7381 103.822 52.6262C104.07 52.5143 104.282 52.3625 104.458 52.1706C104.641 51.9708 104.781 51.739 104.877 51.4753C104.981 51.2115 105.033 50.9277 105.033 50.624C105.033 50.3203 104.981 50.0365 104.877 49.7728C104.781 49.509 104.641 49.2812 104.458 49.0894C104.282 48.8896 104.07 48.7337 103.822 48.6218C103.574 48.5099 103.299 48.4539 102.995 48.4539C102.691 48.4539 102.411 48.5099 102.156 48.6218C101.908 48.7337 101.692 48.8896 101.508 49.0894C101.332 49.2812 101.193 49.509 101.089 49.7728C100.993 50.0365 100.945 50.3203 100.945 50.624C100.945 50.9277 100.993 51.2115 101.089 51.4753C101.193 51.739 101.332 51.9708 101.508 52.1706C101.692 52.3625 101.908 52.5143 102.156 52.6262C102.411 52.7381 102.691 52.7941 102.995 52.7941ZM107.921 47.6267H108.952V48.7896C109.008 48.5978 109.096 48.426 109.216 48.2741C109.336 48.1222 109.472 47.9944 109.624 47.8905C109.775 47.7865 109.935 47.7066 110.103 47.6507C110.279 47.5947 110.455 47.5667 110.631 47.5667C110.791 47.5667 110.946 47.5827 111.098 47.6147V48.6817C111.002 48.6418 110.91 48.6178 110.823 48.6098C110.735 48.5938 110.639 48.5858 110.535 48.5858C110.343 48.5858 110.151 48.6298 109.959 48.7177C109.775 48.7976 109.608 48.9215 109.456 49.0894C109.312 49.2572 109.192 49.473 109.096 49.7368C109 49.9926 108.952 50.2963 108.952 50.648V53.6213H107.921V47.6267ZM114.763 53.7412C114.307 53.7412 113.887 53.6613 113.504 53.5014C113.12 53.3336 112.788 53.1098 112.509 52.83C112.237 52.5423 112.021 52.2106 111.861 51.8349C111.709 51.4593 111.633 51.0556 111.633 50.624C111.633 50.1924 111.709 49.7888 111.861 49.4131C112.021 49.0374 112.237 48.7097 112.509 48.43C112.788 48.1422 113.12 47.9184 113.504 47.7586C113.887 47.5907 114.307 47.5068 114.763 47.5068C115.138 47.5068 115.49 47.5627 115.818 47.6746C116.153 47.7865 116.453 47.9424 116.717 48.1422C116.981 48.3341 117.2 48.5698 117.376 48.8496C117.56 49.1214 117.696 49.4171 117.784 49.7368H116.681C116.545 49.3531 116.309 49.0454 115.974 48.8136C115.638 48.5738 115.234 48.4539 114.763 48.4539C114.451 48.4539 114.167 48.5099 113.911 48.6218C113.656 48.7337 113.436 48.8896 113.252 49.0894C113.068 49.2812 112.924 49.509 112.82 49.7728C112.724 50.0365 112.676 50.3203 112.676 50.624C112.676 50.9277 112.724 51.2115 112.82 51.4753C112.924 51.739 113.068 51.9708 113.252 52.1706C113.436 52.3625 113.656 52.5143 113.911 52.6262C114.167 52.7381 114.451 52.7941 114.763 52.7941C115.234 52.7941 115.638 52.6782 115.974 52.4464C116.309 52.2066 116.545 51.8949 116.681 51.5112H117.784C117.696 51.8389 117.56 52.1387 117.376 52.4104C117.2 52.6822 116.981 52.918 116.717 53.1178C116.453 53.3096 116.153 53.4615 115.818 53.5734C115.49 53.6853 115.138 53.7412 114.763 53.7412ZM119.149 53.6213V44.6294H120.18V48.5499C120.388 48.1902 120.66 47.9264 120.996 47.7586C121.331 47.5907 121.695 47.5068 122.087 47.5068C122.422 47.5068 122.73 47.5627 123.01 47.6746C123.29 47.7865 123.525 47.9504 123.717 48.1662C123.917 48.374 124.073 48.6298 124.185 48.9335C124.297 49.2293 124.353 49.561 124.353 49.9286V53.6213H123.334V50.0845C123.334 49.5809 123.202 49.1853 122.938 48.8976C122.682 48.6018 122.343 48.4539 121.919 48.4539C121.679 48.4539 121.451 48.5019 121.236 48.5978C121.028 48.6937 120.844 48.8376 120.684 49.0294C120.532 49.2133 120.408 49.4411 120.312 49.7128C120.224 49.9846 120.18 50.2963 120.18 50.648V53.6213H119.149ZM126.737 46.0201C126.529 46.0201 126.353 45.9522 126.21 45.8163C126.066 45.6724 125.994 45.4966 125.994 45.2888C125.994 45.089 126.066 44.9171 126.21 44.7732C126.353 44.6294 126.529 44.5574 126.737 44.5574C126.945 44.5574 127.117 44.6294 127.253 44.7732C127.388 44.9171 127.456 45.089 127.456 45.2888C127.456 45.4966 127.388 45.6724 127.253 45.8163C127.117 45.9522 126.945 46.0201 126.737 46.0201ZM126.21 47.6267H127.241V53.6213H126.21V47.6267ZM129.195 47.6267H130.226V48.5499C130.434 48.1902 130.706 47.9264 131.041 47.7586C131.377 47.5907 131.741 47.5068 132.133 47.5068C132.468 47.5068 132.776 47.5627 133.056 47.6746C133.335 47.7865 133.571 47.9504 133.763 48.1662C133.963 48.374 134.119 48.6298 134.231 48.9335C134.343 49.2293 134.398 49.561 134.398 49.9286V53.6213H133.379V50.0845C133.379 49.5809 133.248 49.1853 132.984 48.8976C132.728 48.6018 132.388 48.4539 131.965 48.4539C131.725 48.4539 131.497 48.5019 131.281 48.5978C131.073 48.6937 130.89 48.8376 130.73 49.0294C130.578 49.2133 130.454 49.4411 130.358 49.7128C130.27 49.9846 130.226 50.2963 130.226 50.648V53.6213H129.195V47.6267ZM138.725 53.7412C138.301 53.7412 137.91 53.6613 137.55 53.5014C137.198 53.3336 136.891 53.1098 136.627 52.83C136.363 52.5423 136.155 52.2106 136.003 51.8349C135.86 51.4593 135.788 51.0556 135.788 50.624C135.788 50.1924 135.86 49.7888 136.003 49.4131C136.155 49.0374 136.363 48.7097 136.627 48.43C136.891 48.1422 137.198 47.9184 137.55 47.7586C137.91 47.5907 138.301 47.5068 138.725 47.5068C139.181 47.5068 139.596 47.6107 139.972 47.8185C140.348 48.0183 140.635 48.2621 140.835 48.5499V44.6294H141.866V53.6213H140.835V52.6982C140.635 52.9859 140.348 53.2337 139.972 53.4415C139.596 53.6413 139.181 53.7412 138.725 53.7412ZM138.881 52.7941C139.185 52.7941 139.46 52.7381 139.708 52.6262C139.956 52.5143 140.168 52.3625 140.344 52.1706C140.527 51.9708 140.667 51.739 140.763 51.4753C140.867 51.2115 140.919 50.9277 140.919 50.624C140.919 50.3203 140.867 50.0365 140.763 49.7728C140.667 49.509 140.527 49.2812 140.344 49.0894C140.168 48.8896 139.956 48.7337 139.708 48.6218C139.46 48.5099 139.185 48.4539 138.881 48.4539C138.577 48.4539 138.297 48.5099 138.042 48.6218C137.794 48.7337 137.578 48.8896 137.394 49.0894C137.218 49.2812 137.078 49.509 136.975 49.7728C136.879 50.0365 136.831 50.3203 136.831 50.624C136.831 50.9277 136.879 51.2115 136.975 51.4753C137.078 51.739 137.218 51.9708 137.394 52.1706C137.578 52.3625 137.794 52.5143 138.042 52.6262C138.297 52.7381 138.577 52.7941 138.881 52.7941ZM146.361 53.7412C145.921 53.7412 145.518 53.6653 145.15 53.5134C144.782 53.3536 144.462 53.1338 144.191 52.854C143.927 52.5743 143.719 52.2466 143.567 51.8709C143.415 51.4872 143.339 51.0716 143.339 50.624C143.339 50.1844 143.407 49.7768 143.543 49.4011C143.687 49.0174 143.891 48.6857 144.155 48.406C144.419 48.1262 144.738 47.9064 145.114 47.7466C145.49 47.5867 145.913 47.5068 146.385 47.5068C146.856 47.5068 147.276 47.5987 147.644 47.7825C148.019 47.9584 148.331 48.2022 148.579 48.5139C148.835 48.8176 149.018 49.1773 149.13 49.5929C149.25 50.0006 149.294 50.4362 149.262 50.8998H144.383C144.391 51.1715 144.447 51.4233 144.55 51.6551C144.662 51.8869 144.806 52.0907 144.982 52.2665C145.158 52.4344 145.366 52.5663 145.605 52.6622C145.845 52.7581 146.101 52.8061 146.373 52.8061C146.748 52.8061 147.084 52.7301 147.38 52.5783C147.684 52.4184 147.927 52.1586 148.111 51.799H149.166C149.094 52.0627 148.978 52.3145 148.819 52.5543C148.659 52.7861 148.459 52.9899 148.219 53.1657C147.987 53.3416 147.716 53.4815 147.404 53.5854C147.092 53.6893 146.744 53.7412 146.361 53.7412ZM146.349 48.418C146.133 48.418 145.921 48.45 145.713 48.5139C145.506 48.5778 145.314 48.6777 145.138 48.8136C144.97 48.9495 144.822 49.1214 144.694 49.3292C144.566 49.537 144.478 49.7888 144.431 50.0845H148.171C148.075 49.525 147.859 49.1094 147.524 48.8376C147.188 48.5579 146.796 48.418 146.349 48.418ZM152.734 51.3554L150.911 53.6213H149.628L152.086 50.588L149.832 47.6267H151.079L152.734 49.7968L154.376 47.6267H155.635L153.369 50.588L155.827 53.6213H154.556L152.734 51.3554Z" fill="#001E2B"/>
<path d="M258.086 53.6458V44.6538H259.117V48.5743C259.325 48.2146 259.596 47.9508 259.932 47.783C260.268 47.6151 260.631 47.5312 261.023 47.5312C261.359 47.5312 261.666 47.5872 261.946 47.6991C262.226 47.811 262.462 47.9748 262.654 48.1906C262.853 48.3984 263.009 48.6542 263.121 48.9579C263.233 49.2537 263.289 49.5854 263.289 49.953V53.6458H262.27V50.1089C262.27 49.6054 262.138 49.2097 261.874 48.922C261.618 48.6262 261.279 48.4784 260.855 48.4784C260.615 48.4784 260.388 48.5263 260.172 48.6222C259.964 48.7181 259.78 48.862 259.62 49.0538C259.468 49.2377 259.345 49.4655 259.249 49.7372C259.161 50.009 259.117 50.3207 259.117 50.6724V53.6458H258.086ZM267.807 53.7656C267.352 53.7656 266.932 53.6857 266.548 53.5259C266.165 53.358 265.833 53.1342 265.553 52.8545C265.274 52.5747 265.054 52.247 264.894 51.8713C264.742 51.4877 264.666 51.08 264.666 50.6484C264.666 50.2168 264.742 49.8132 264.894 49.4375C265.054 49.0538 265.274 48.7221 265.553 48.4424C265.833 48.1626 266.165 47.9428 266.548 47.783C266.932 47.6151 267.352 47.5312 267.807 47.5312C268.255 47.5312 268.671 47.6151 269.054 47.783C269.438 47.9428 269.77 48.1626 270.049 48.4424C270.329 48.7221 270.545 49.0538 270.697 49.4375C270.857 49.8132 270.937 50.2168 270.937 50.6484C270.937 51.08 270.857 51.4877 270.697 51.8713C270.545 52.247 270.329 52.5747 270.049 52.8545C269.77 53.1342 269.438 53.358 269.054 53.5259C268.671 53.6857 268.255 53.7656 267.807 53.7656ZM267.807 52.8065C268.119 52.8065 268.403 52.7506 268.659 52.6387C268.914 52.5268 269.13 52.3749 269.306 52.1831C269.49 51.9832 269.63 51.7554 269.726 51.4997C269.83 51.2359 269.882 50.9522 269.882 50.6484C269.882 50.3527 269.83 50.0729 269.726 49.8092C269.63 49.5454 269.49 49.3176 269.306 49.1258C269.13 48.926 268.914 48.7701 268.659 48.6582C268.403 48.5463 268.119 48.4904 267.807 48.4904C267.496 48.4904 267.212 48.5463 266.956 48.6582C266.7 48.7701 266.481 48.926 266.297 49.1258C266.113 49.3176 265.969 49.5454 265.865 49.8092C265.769 50.0729 265.721 50.3527 265.721 50.6484C265.721 50.9522 265.769 51.2359 265.865 51.4997C265.969 51.7554 266.113 51.9832 266.297 52.1831C266.481 52.3749 266.7 52.5268 266.956 52.6387C267.212 52.7506 267.496 52.8065 267.807 52.8065ZM274.539 53.7656C274.211 53.7656 273.911 53.7097 273.64 53.5978C273.368 53.4779 273.136 53.314 272.944 53.1062C272.752 52.8984 272.6 52.6466 272.489 52.3509C272.385 52.0472 272.333 51.7075 272.333 51.3318V47.6511H273.364V51.176C273.364 51.6795 273.484 52.0792 273.723 52.3749C273.971 52.6706 274.303 52.8185 274.719 52.8185C274.95 52.8185 275.166 52.7705 275.366 52.6746C275.574 52.5707 275.75 52.4268 275.893 52.243C276.045 52.0512 276.165 51.8194 276.253 51.5476C276.341 51.2759 276.385 50.9681 276.385 50.6244V47.6511H277.416V53.6458H276.385V52.7226C276.185 53.0743 275.921 53.338 275.594 53.5139C275.274 53.6817 274.922 53.7656 274.539 53.7656ZM281.29 53.7656C280.97 53.7656 280.666 53.7257 280.379 53.6458C280.091 53.5658 279.839 53.4499 279.623 53.2981C279.408 53.1382 279.232 52.9424 279.096 52.7106C278.96 52.4788 278.88 52.211 278.856 51.9073H279.911C279.943 52.0911 280.003 52.247 280.091 52.3749C280.187 52.4948 280.299 52.5947 280.427 52.6746C280.555 52.7545 280.69 52.8105 280.834 52.8425C280.986 52.8744 281.142 52.8904 281.302 52.8904C281.63 52.8904 281.901 52.8265 282.117 52.6986C282.341 52.5627 282.453 52.3629 282.453 52.0991C282.453 51.8593 282.377 51.6635 282.225 51.5117C282.073 51.3598 281.817 51.2359 281.458 51.14L280.595 50.9122C280.075 50.7763 279.687 50.5565 279.432 50.2528C279.176 49.9491 279.048 49.5814 279.048 49.1498C279.048 48.902 279.1 48.6782 279.204 48.4784C279.308 48.2785 279.452 48.1107 279.635 47.9748C279.819 47.8309 280.035 47.723 280.283 47.6511C280.539 47.5712 280.818 47.5312 281.122 47.5312C281.442 47.5312 281.73 47.5752 281.985 47.6631C282.241 47.751 282.461 47.8749 282.645 48.0348C282.837 48.1866 282.988 48.3665 283.1 48.5743C283.212 48.7821 283.28 49.0059 283.304 49.2457H282.273C282.193 48.9819 282.049 48.7741 281.841 48.6222C281.642 48.4704 281.402 48.3944 281.122 48.3944C280.834 48.3944 280.591 48.4624 280.391 48.5983C280.191 48.7261 280.091 48.906 280.091 49.1378C280.091 49.3616 280.163 49.5414 280.307 49.6773C280.451 49.8052 280.682 49.9131 281.002 50.001L281.961 50.2528C282.465 50.3807 282.845 50.5965 283.1 50.9002C283.364 51.1959 283.496 51.5716 283.496 52.0272C283.496 52.3229 283.44 52.5827 283.328 52.8065C283.216 53.0223 283.06 53.2021 282.86 53.346C282.661 53.4899 282.425 53.5938 282.153 53.6577C281.889 53.7297 281.602 53.7656 281.29 53.7656ZM287.51 53.7656C287.07 53.7656 286.667 53.6897 286.299 53.5378C285.931 53.378 285.612 53.1582 285.34 52.8784C285.076 52.5987 284.868 52.271 284.716 51.8953C284.565 51.5117 284.489 51.096 284.489 50.6484C284.489 50.2088 284.557 49.8012 284.692 49.4255C284.836 49.0419 285.04 48.7102 285.304 48.4304C285.568 48.1507 285.887 47.9309 286.263 47.771C286.639 47.6111 287.062 47.5312 287.534 47.5312C288.005 47.5312 288.425 47.6231 288.793 47.807C289.168 47.9828 289.48 48.2266 289.728 48.5383C289.984 48.842 290.168 49.2017 290.279 49.6173C290.399 50.025 290.443 50.4606 290.411 50.9242H285.532C285.54 51.1959 285.596 51.4477 285.7 51.6795C285.811 51.9113 285.955 52.1151 286.131 52.291C286.307 52.4588 286.515 52.5907 286.755 52.6866C286.994 52.7825 287.25 52.8305 287.522 52.8305C287.898 52.8305 288.233 52.7545 288.529 52.6027C288.833 52.4428 289.077 52.1831 289.26 51.8234H290.315C290.243 52.0871 290.128 52.3389 289.968 52.5787C289.808 52.8105 289.608 53.0143 289.368 53.1902C289.136 53.366 288.865 53.5059 288.553 53.6098C288.241 53.7137 287.894 53.7656 287.51 53.7656ZM287.498 48.4424C287.282 48.4424 287.07 48.4744 286.862 48.5383C286.655 48.6023 286.463 48.7022 286.287 48.838C286.119 48.9739 285.971 49.1458 285.843 49.3536C285.716 49.5614 285.628 49.8132 285.58 50.1089H289.32C289.224 49.5494 289.009 49.1338 288.673 48.862C288.337 48.5823 287.946 48.4424 287.498 48.4424Z" fill="#001E2B"/>
<path d="M228.42 47.8481L223.864 53.7228C223.504 54.2023 222.785 54.2023 222.425 53.7228L217.869 47.8481C217.39 47.2487 217.869 46.4094 218.589 46.4094H227.82C228.539 46.4094 228.899 47.2487 228.42 47.8481Z" fill="#001E2B"/>
<path d="M244.606 35.8591V63.434" stroke="#001E2B" stroke-miterlimit="10" stroke-linecap="round" stroke-linejoin="round"/>
<path d="M122.916 210.06H122.076" stroke="#001E2B" stroke-miterlimit="10"/>
<path d="M120.398 210.06H90.7853C52.3004 210.06 52.7799 198.671 52.7799 160.905" stroke="#001E2B" stroke-miterlimit="10" stroke-dasharray="1.43 1.43"/>
<path d="M114.404 202.627L122.916 210.06L114.404 217.374" stroke="#001E2B" stroke-miterlimit="10"/>
<path d="M569.622 440.968L551.998 422.984L560.511 395.889L578.374 413.153L569.622 440.968Z" fill="#001E2B" stroke="#001E2B" stroke-miterlimit="10" stroke-linejoin="round"/>
<path d="M569.743 440.968L594.44 436.292L602.832 409.197L578.375 413.153L569.743 440.968Z" fill="white" stroke="#001E2B" stroke-miterlimit="10" stroke-linejoin="round"/>
<path d="M584.848 392.292L560.51 395.889L578.374 413.153L602.832 409.197L584.848 392.292Z" fill="white" stroke="#001E2B" stroke-miterlimit="10" stroke-linejoin="round"/>
<path d="M414.371 55.761C418.94 55.761 422.643 52.0573 422.643 47.4885C422.643 42.9198 418.94 39.2161 414.371 39.2161C409.802 39.2161 406.099 42.9198 406.099 47.4885C406.099 52.0573 409.802 55.761 414.371 55.761Z" stroke="white" stroke-miterlimit="10"/>
<path d="M420.247 53.3633L427.8 60.9164" stroke="white" stroke-miterlimit="10"/>
<path d="M520.116 298.899L525.032 293.984L520.116 288.948" fill="white"/>
<path d="M520.116 298.899L525.032 293.984L520.116 288.948" stroke="#001E2B" stroke-miterlimit="10" stroke-linecap="round" stroke-linejoin="round"/>
</g>
<defs>
<clipPath id="clip0">
<rect width="668" height="440" fill="white" transform="translate(0.998291 0.58667)"/>
</clipPath>
</defs>
</svg>
